<svg xmlns="http://www.w3.org/2000/svg" width="620" height="140" viewBox="0 0 620 140">
  <g shape-rendering="crispEdges">
    <rect x="36" y="6" width="12" height="12" fill="#e6011d"/>
    <rect x="48" y="6" width="12" height="12" fill="#e6011d"/>
    <rect x="60" y="6" width="12" height="12" fill="#e6011d"/>
    <rect x="24" y="18" width="12" height="12" fill="#e6011d"/>
    <rect x="36" y="18" width="12" height="12" fill="#e6011d"/>
    <rect x="48" y="18" width="12" height="12" fill="#e6011d"/>
    <rect x="60" y="18" width="12" height="12" fill="#e6011d"/>
    <rect x="72" y="18" width="12" height="12" fill="#e6011d"/>
    <rect x="24" y="30" width="12" height="12" fill="#e6011d"/>
    <rect x="36" y="30" width="12" height="12" fill="#e6011d"/>
    <rect x="48" y="30" width="12" height="12" fill="#e6011d"/>
    <rect x="60" y="30" width="12" height="12" fill="#e6011d"/>
    <rect x="72" y="30" width="12" height="12" fill="#e6011d"/>
    <rect x="108" y="30" width="12" height="12" fill="#f72b3c"/>
    <rect x="36" y="42" width="12" height="12" fill="#b90014"/>
    <rect x="48" y="42" width="12" height="12" fill="#b90014"/>
    <rect x="60" y="42" width="12" height="12" fill="#b90014"/>
    <rect x="72" y="42" width="12" height="12" fill="#b90014"/>
    <rect x="96" y="42" width="12" height="12" fill="#f72b3c"/>
    <rect x="108" y="42" width="12" height="12" fill="#f72b3c"/>
    <rect x="12" y="54" width="12" height="12" fill="#f4650c"/>
    <rect x="24" y="54" width="12" height="12" fill="#f4650c"/>
    <rect x="36" y="54" width="12" height="12" fill="#d20118"/>
    <rect x="48" y="54" width="12" height="12" fill="#e6011d"/>
    <rect x="72" y="54" width="12" height="12" fill="#e6011d"/>
    <rect x="84" y="54" width="12" height="12" fill="#f72b3c"/>
    <rect x="96" y="54" width="12" height="12" fill="#f72b3c"/>
    <rect x="36" y="66" width="12" height="12" fill="#d20118"/>
    <rect x="48" y="66" width="12" height="12" fill="#d20118"/>
    <rect x="60" y="66" width="12" height="12" fill="#e6011d"/>
    <rect x="72" y="66" width="12" height="12" fill="#e6011d"/>
    <rect x="84" y="66" width="12" height="12" fill="#e6011d"/>
    <rect x="96" y="66" width="12" height="12" fill="#f72b3c"/>
    <rect x="108" y="66" width="12" height="12" fill="#d20118"/>
    <rect x="48" y="78" width="12" height="12" fill="#d20118"/>
    <rect x="60" y="78" width="12" height="12" fill="#d20118"/>
    <rect x="72" y="78" width="12" height="12" fill="#e6011d"/>
    <rect x="84" y="78" width="12" height="12" fill="#e6011d"/>
    <rect x="96" y="78" width="12" height="12" fill="#d20118"/>
    <rect x="108" y="78" width="12" height="12" fill="#d20118"/>
    <rect x="60" y="90" width="12" height="12" fill="#d20118"/>
    <rect x="72" y="90" width="12" height="12" fill="#d20118"/>
    <rect x="84" y="90" width="12" height="12" fill="#e6011d"/>
    <rect x="96" y="90" width="12" height="12" fill="#d20118"/>
    <rect x="72" y="102" width="12" height="12" fill="#b90014"/>
    <rect x="84" y="102" width="12" height="12" fill="#d20118"/>
    <rect x="84" y="114" width="12" height="12" fill="#b90014"/>
  </g>
  <text x="252" y="62" font-family="ui-monospace, SFMono-Regular, Menlo, Consolas, monospace"
        font-size="52" font-weight="bold" fill="#d20118">zunz&#250;n</text>
  <text x="252" y="94" font-family="ui-monospace, SFMono-Regular, Menlo, Consolas, monospace"
        font-size="19" fill="#808080" font-style="italic">tiny engine, immense model</text>
  <text x="252" y="122" font-family="ui-monospace, SFMono-Regular, Menlo, Consolas, monospace"
        font-size="15" fill="#9a9a9a">GLM-5.2 &#183; 744B MoE &#183; int4 &#183; streaming CPU</text>
</svg>
