<svg xmlns="http://www.w3.org/2000/svg" width="168" height="168" viewBox="0 0 168 168">
  <g shape-rendering="crispEdges">
    <rect x="49" y="14" width="14" height="14" fill="#e6011d"/>
    <rect x="63" y="14" width="14" height="14" fill="#e6011d"/>
    <rect x="77" y="14" width="14" height="14" fill="#e6011d"/>
    <rect x="35" y="28" width="14" height="14" fill="#e6011d"/>
    <rect x="49" y="28" width="14" height="14" fill="#e6011d"/>
    <rect x="63" y="28" width="14" height="14" fill="#e6011d"/>
    <rect x="77" y="28" width="14" height="14" fill="#e6011d"/>
    <rect x="91" y="28" width="14" height="14" fill="#e6011d"/>
    <rect x="35" y="42" width="14" height="14" fill="#e6011d"/>
    <rect x="49" y="42" width="14" height="14" fill="#e6011d"/>
    <rect x="63" y="42" width="14" height="14" fill="#e6011d"/>
    <rect x="77" y="42" width="14" height="14" fill="#e6011d"/>
    <rect x="91" y="42" width="14" height="14" fill="#e6011d"/>
    <rect x="133" y="42" width="14" height="14" fill="#f72b3c"/>
    <rect x="49" y="56" width="14" height="14" fill="#b90014"/>
    <rect x="63" y="56" width="14" height="14" fill="#b90014"/>
    <rect x="77" y="56" width="14" height="14" fill="#b90014"/>
    <rect x="91" y="56" width="14" height="14" fill="#b90014"/>
    <rect x="119" y="56" width="14" height="14" fill="#f72b3c"/>
    <rect x="133" y="56" width="14" height="14" fill="#f72b3c"/>
    <rect x="21" y="70" width="14" height="14" fill="#f4650c"/>
    <rect x="35" y="70" width="14" height="14" fill="#f4650c"/>
    <rect x="49" y="70" width="14" height="14" fill="#d20118"/>
    <rect x="63" y="70" width="14" height="14" fill="#e6011d"/>
    <rect x="91" y="70" width="14" height="14" fill="#e6011d"/>
    <rect x="105" y="70" width="14" height="14" fill="#f72b3c"/>
    <rect x="119" y="70" width="14" height="14" fill="#f72b3c"/>
    <rect x="49" y="84" width="14" height="14" fill="#d20118"/>
    <rect x="63" y="84" width="14" height="14" fill="#d20118"/>
    <rect x="77" y="84" width="14" height="14" fill="#e6011d"/>
    <rect x="91" y="84" width="14" height="14" fill="#e6011d"/>
    <rect x="105" y="84" width="14" height="14" fill="#e6011d"/>
    <rect x="119" y="84" width="14" height="14" fill="#f72b3c"/>
    <rect x="133" y="84" width="14" height="14" fill="#d20118"/>
    <rect x="63" y="98" width="14" height="14" fill="#d20118"/>
    <rect x="77" y="98" width="14" height="14" fill="#d20118"/>
    <rect x="91" y="98" width="14" height="14" fill="#e6011d"/>
    <rect x="105" y="98" width="14" height="14" fill="#e6011d"/>
    <rect x="119" y="98" width="14" height="14" fill="#d20118"/>
    <rect x="133" y="98" width="14" height="14" fill="#d20118"/>
    <rect x="77" y="112" width="14" height="14" fill="#d20118"/>
    <rect x="91" y="112" width="14" height="14" fill="#d20118"/>
    <rect x="105" y="112" width="14" height="14" fill="#e6011d"/>
    <rect x="119" y="112" width="14" height="14" fill="#d20118"/>
    <rect x="91" y="126" width="14" height="14" fill="#b90014"/>
    <rect x="105" y="126" width="14" height="14" fill="#d20118"/>
    <rect x="105" y="140" width="14" height="14" fill="#b90014"/>
  </g>
</svg>
